<?xml version="1.0" encoding="UTF-8"?>
<!DOCTYPE svg PUBLIC "-//W3C//DTD SVG 1.1//EN" "http://www.w3.org/Graphics/SVG/1.1/DTD/svg11.dtd">
<svg xmlns="http://www.w3.org/2000/svg" xmlns:xlink="http://www.w3.org/1999/xlink" version="1.1" width="146px" height="108px" viewBox="-0.5 -0.5 146 108" style="background-color: rgb(255, 255, 255);"><defs><style type="text/css">@import url(https://fonts.googleapis.com/css?family=Inter);&#xa;@import url(https://fonts.googleapis.com/css?family=Montserrat);&#xa;</style></defs><g><rect x="2" y="2" width="100" height="62" fill="none" stroke="none" pointer-events="all"/><path d="M 17.27 64 C 8.53 63.31 2 55.62 2.68 46.83 C 2.59 42.36 4.36 38.06 7.57 34.97 C 10.78 31.88 15.12 30.28 19.56 30.56 C 22.39 25.09 28.65 22.38 34.54 24.07 C 34.2 15.6 39.21 7.84 47.05 4.71 C 55.75 2 65.02 6.72 67.99 15.39 C 73.61 11.5 81.13 11.96 86.25 16.48 C 91.75 20.89 94.35 28.01 93 34.95 C 98.63 37.64 102 43.58 101.43 49.83 C 101.13 57 95.8 62.95 88.73 64 Z" fill="#ffffff" stroke="#ff9900" stroke-width="6" stroke-miterlimit="10" pointer-events="all"/><rect x="22" y="22" width="100" height="62" fill="none" stroke="none" pointer-events="all"/><path d="M 37.27 84 C 28.53 83.31 22 75.62 22.68 66.83 C 22.59 62.36 24.36 58.06 27.57 54.97 C 30.78 51.88 35.12 50.28 39.56 50.56 C 42.39 45.09 48.65 42.38 54.54 44.07 C 54.2 35.6 59.21 27.84 67.05 24.71 C 75.75 22 85.02 26.72 87.99 35.39 C 93.61 31.5 101.13 31.96 106.25 36.48 C 111.75 40.89 114.35 48.01 113 54.95 C 118.63 57.64 122 63.58 121.43 69.83 C 121.13 77 115.8 82.95 108.73 84 Z" fill="#ffffff" stroke="#ff9900" stroke-width="6" stroke-miterlimit="10" pointer-events="all"/><rect x="42" y="42" width="100" height="62" fill="none" stroke="none" pointer-events="all"/><path d="M 57.27 104 C 48.53 103.31 42 95.62 42.68 86.83 C 42.59 82.36 44.36 78.06 47.57 74.97 C 50.78 71.88 55.12 70.28 59.56 70.56 C 62.39 65.09 68.65 62.38 74.54 64.07 C 74.2 55.6 79.21 47.84 87.05 44.71 C 95.75 42 105.02 46.72 107.99 55.39 C 113.61 51.5 121.13 51.96 126.25 56.48 C 131.75 60.89 134.35 68.01 133 74.95 C 138.63 77.64 142 83.58 141.43 89.83 C 141.13 97 135.8 102.95 128.73 104 Z" fill="#ffffff" stroke="#ff9900" stroke-width="6" stroke-miterlimit="10" pointer-events="all"/></g></svg>